<svg xmlns="http://www.w3.org/2000/svg" width="1000" height="734" viewBox="0 0 1000 734"><rect width="1000" height="734" fill="#efe5cc"/><line x1="38" y1="72" x2="600" y2="72" stroke="#b89b6a" stroke-width="0.8"/><path transform="translate(40.0,70.0) scale(0.1)" d="M 46.0 48.0 L 546.0 48.0 L 546.0 -14.0 L 46.0 -14.0 Z M 359.0 700.0 L 326.0 0.0 L 266.0 0.0 L 233.0 700.0 Z M 193.9 700.0 L 398.1 700.0 L 398.1 670.0 L 193.9 670.0 Z " fill="#241c0f"/><path transform="translate(99.2,70.0) scale(0.1)" d="M 211.1 700.0 L 178.1 0.0 L 118.1 0.0 L 85.1 700.0 Z M 46.0 700.0 L 250.1 700.0 L 250.1 670.0 L 46.0 670.0 Z M 641.1 700.0 L 608.1 0.0 L 548.1 0.0 L 515.1 700.0 Z M 476.0 700.0 L 680.1 700.0 L 680.1 670.0 L 476.0 670.0 Z M 148.1 399.1 L 578.1 399.1 L 578.1 300.9 L 148.1 300.9 Z " fill="#241c0f"/><path transform="translate(171.8,70.0) scale(0.1)" d="M 211.1 700.0 L 178.1 0.0 L 118.1 0.0 L 85.1 700.0 Z M 46.0 700.0 L 250.1 700.0 L 250.1 670.0 L 46.0 670.0 Z M 148.1 48.0 L 548.1 48.0 L 548.1 -14.0 L 148.1 -14.0 Z M 148.1 399.1 L 498.1 399.1 L 498.1 300.9 L 148.1 300.9 Z M 148.1 744.7 L 553.1 744.7 L 553.1 619.3 L 148.1 619.3 Z " fill="#241c0f"/><path transform="translate(261.7,70.0) scale(0.1)" d="M 572.2 41.0 L 542.7 24.2 L 510.1 9.8 L 476.5 -0.9 L 442.0 -7.8 L 407.1 -11.0 L 372.2 -10.4 L 337.4 -5.9 L 303.2 2.3 L 269.9 14.2 L 237.7 29.7 L 207.2 48.7 L 178.5 71.0 L 151.9 96.3 L 127.7 124.6 L 106.3 155.3 L 87.8 188.4 L 72.4 223.5 L 60.4 260.2 L 51.9 298.1 L 47.1 336.9 L 46.0 376.2 L 48.7 415.5 L 55.3 454.5 L 65.7 492.6 L 79.8 529.5 L 97.6 564.7 L 119.0 597.8 L 143.6 628.3 L 171.3 656.0 L 201.8 680.3 L 234.8 701.0 L 269.8 717.8 L 306.4 730.4 L 344.2 738.7 L 382.6 742.5 L 421.2 741.7 L 459.5 736.4 L 496.9 726.7 L 533.1 712.7 L 566.9 694.8 L 587.2 681.5 L 521.7 578.2 L 505.7 587.9 L 482.7 599.3 L 459.4 607.7 L 435.7 613.5 L 411.6 616.7 L 387.4 617.1 L 363.3 614.9 L 339.4 610.0 L 316.0 602.4 L 293.2 592.2 L 271.2 579.4 L 250.2 564.1 L 230.6 546.4 L 212.4 526.5 L 195.9 504.4 L 181.4 480.4 L 169.0 454.6 L 158.9 427.4 L 151.3 399.1 L 146.4 369.8 L 144.2 340.0 L 144.9 310.0 L 148.4 280.1 L 154.7 250.8 L 163.9 222.2 L 175.9 194.9 L 190.4 169.1 L 207.5 145.2 L 226.8 123.4 L 248.3 104.1 L 271.5 87.5 L 296.3 73.8 L 322.4 63.3 L 349.4 56.0 L 377.0 52.0 L 404.8 51.4 L 432.4 54.3 L 459.7 60.5 L 486.1 70.0 L 511.3 82.6 L 536.7 99.2 Z " fill="#241c0f"/><path transform="translate(325.0,70.0) scale(0.1)" d="M 700.3 350.0 L 697.0 316.0 L 690.2 282.6 L 680.1 250.3 L 666.7 219.3 L 650.2 190.0 L 630.9 162.7 L 609.0 137.6 L 584.7 115.0 L 558.4 95.0 L 530.3 77.8 L 500.7 63.5 L 469.8 52.4 L 438.1 44.3 L 405.8 39.4 L 373.1 37.8 L 340.5 39.4 L 308.1 44.3 L 276.4 52.4 L 245.6 63.5 L 216.0 77.8 L 187.9 95.0 L 161.5 115.0 L 137.3 137.6 L 115.4 162.7 L 96.1 190.0 L 79.6 219.3 L 66.2 250.3 L 56.0 282.6 L 49.2 316.0 L 46.0 350.0 L 46.4 384.3 L 50.4 418.6 L 58.1 452.4 L 69.4 485.2 L 84.2 516.8 L 102.4 546.7 L 123.7 574.6 L 148.0 600.0 L 174.9 622.8 L 204.2 642.5 L 235.5 659.0 L 268.5 672.0 L 302.7 681.5 L 337.7 687.2 L 373.1 689.1 L 408.6 687.2 L 443.6 681.5 L 477.8 672.0 L 510.7 659.0 L 542.0 642.5 L 571.3 622.8 L 598.3 600.0 L 622.5 574.6 L 643.9 546.7 L 662.1 516.8 L 676.9 485.2 L 688.2 452.4 L 695.8 418.6 L 699.9 384.3 Z M 599.3 373.8 L 594.3 397.0 L 586.9 419.5 L 577.3 440.9 L 565.7 461.2 L 552.2 480.1 L 536.9 497.5 L 520.0 513.2 L 501.8 527.0 L 482.2 539.0 L 461.7 548.9 L 440.3 556.7 L 418.3 562.4 L 395.8 565.8 L 373.1 566.9 L 350.4 565.8 L 328.0 562.4 L 305.9 556.7 L 284.6 548.9 L 264.0 539.0 L 244.5 527.0 L 226.2 513.2 L 209.4 497.5 L 194.1 480.1 L 180.5 461.2 L 168.9 440.9 L 159.4 419.5 L 152.0 397.0 L 146.9 373.8 L 144.3 350.0 L 144.1 325.9 L 146.4 301.8 L 151.3 277.9 L 158.7 254.5 L 168.7 232.0 L 181.1 210.5 L 195.8 190.3 L 212.7 171.8 L 231.6 155.2 L 252.3 140.7 L 274.5 128.5 L 298.0 118.9 L 322.5 111.9 L 347.6 107.6 L 373.1 106.2 L 398.6 107.6 L 423.7 111.9 L 448.2 118.9 L 471.7 128.5 L 494.0 140.7 L 514.7 155.2 L 533.6 171.8 L 550.5 190.3 L 565.2 210.5 L 577.6 232.0 L 587.5 254.5 L 595.0 277.9 L 599.9 301.8 L 602.2 325.9 L 602.0 350.0 Z " fill="#241c0f"/><path transform="translate(399.6,70.0) scale(0.1)" d="M 211.1 700.0 L 178.1 0.0 L 118.1 0.0 L 85.1 700.0 Z M 46.0 700.0 L 250.1 700.0 L 250.1 670.0 L 46.0 670.0 Z M 146.8 30.0 L 190.4 31.9 L 232.3 37.7 L 273.0 47.1 L 312.1 60.2 L 349.1 76.5 L 383.5 96.0 L 414.9 118.3 L 443.0 143.0 L 467.3 169.8 L 487.8 198.1 L 504.2 227.7 L 516.5 258.0 L 524.6 288.7 L 528.7 319.5 L 528.8 350.0 L 525.1 380.1 L 517.6 409.5 L 506.5 438.0 L 491.9 465.6 L 473.7 491.9 L 452.3 516.8 L 427.6 540.0 L 400.0 561.3 L 369.6 580.4 L 336.7 597.1 L 301.7 611.1 L 264.9 622.2 L 226.7 630.3 L 187.6 635.3 L 145.4 637.1 L 148.1 700.0 L 148.1 700.0 L 150.7 762.9 L 198.4 760.9 L 248.2 754.4 L 297.0 743.5 L 344.2 728.4 L 389.4 709.2 L 432.0 685.9 L 471.6 658.9 L 507.6 628.4 L 539.6 594.7 L 567.2 558.1 L 589.9 519.1 L 607.5 478.3 L 619.7 436.1 L 626.3 393.1 L 627.3 350.0 L 622.7 307.4 L 612.7 265.7 L 597.6 225.7 L 577.6 187.6 L 553.1 151.9 L 524.5 118.8 L 492.3 88.6 L 456.6 61.5 L 418.1 37.6 L 377.0 17.2 L 333.8 0.4 L 288.9 -12.9 L 242.7 -22.4 L 195.6 -28.1 L 149.3 -30.0 Z " fill="#241c0f"/><path transform="translate(466.9,70.0) scale(0.1)" d="M 211.1 700.0 L 178.1 0.0 L 118.1 0.0 L 85.1 700.0 Z M 46.0 700.0 L 250.1 700.0 L 250.1 670.0 L 46.0 670.0 Z M 148.1 48.0 L 548.1 48.0 L 548.1 -14.0 L 148.1 -14.0 Z M 148.1 399.1 L 498.1 399.1 L 498.1 300.9 L 148.1 300.9 Z M 148.1 744.7 L 553.1 744.7 L 553.1 619.3 L 148.1 619.3 Z " fill="#241c0f"/><path transform="translate(526.8,70.0) scale(0.1)" d="M 73.4 16.7 L 516.0 735.1 L 620.6 664.9 L 123.2 -16.7 Z M 543.4 -16.7 L 46.0 664.9 L 150.6 735.1 L 593.2 16.7 Z " fill="#241c0f"/><line x1="38" y1="164" x2="655" y2="164" stroke="#b89b6a" stroke-width="0.8"/><path transform="translate(40.0,162.0) scale(0.1)" d="M 700.3 350.0 L 697.0 316.0 L 690.2 282.6 L 680.1 250.3 L 666.7 219.3 L 650.2 190.0 L 630.9 162.7 L 609.0 137.6 L 584.7 115.0 L 558.4 95.0 L 530.3 77.8 L 500.7 63.5 L 469.8 52.4 L 438.1 44.3 L 405.8 39.4 L 373.1 37.8 L 340.5 39.4 L 308.1 44.3 L 276.4 52.4 L 245.6 63.5 L 216.0 77.8 L 187.9 95.0 L 161.5 115.0 L 137.3 137.6 L 115.4 162.7 L 96.1 190.0 L 79.6 219.3 L 66.2 250.3 L 56.0 282.6 L 49.2 316.0 L 46.0 350.0 L 46.4 384.3 L 50.4 418.6 L 58.1 452.4 L 69.4 485.2 L 84.2 516.8 L 102.4 546.7 L 123.7 574.6 L 148.0 600.0 L 174.9 622.8 L 204.2 642.5 L 235.5 659.0 L 268.5 672.0 L 302.7 681.5 L 337.7 687.2 L 373.1 689.1 L 408.6 687.2 L 443.6 681.5 L 477.8 672.0 L 510.7 659.0 L 542.0 642.5 L 571.3 622.8 L 598.3 600.0 L 622.5 574.6 L 643.9 546.7 L 662.1 516.8 L 676.9 485.2 L 688.2 452.4 L 695.8 418.6 L 699.9 384.3 Z M 599.3 373.8 L 594.3 397.0 L 586.9 419.5 L 577.3 440.9 L 565.7 461.2 L 552.2 480.1 L 536.9 497.5 L 520.0 513.2 L 501.8 527.0 L 482.2 539.0 L 461.7 548.9 L 440.3 556.7 L 418.3 562.4 L 395.8 565.8 L 373.1 566.9 L 350.4 565.8 L 328.0 562.4 L 305.9 556.7 L 284.6 548.9 L 264.0 539.0 L 244.5 527.0 L 226.2 513.2 L 209.4 497.5 L 194.1 480.1 L 180.5 461.2 L 168.9 440.9 L 159.4 419.5 L 152.0 397.0 L 146.9 373.8 L 144.3 350.0 L 144.1 325.9 L 146.4 301.8 L 151.3 277.9 L 158.7 254.5 L 168.7 232.0 L 181.1 210.5 L 195.8 190.3 L 212.7 171.8 L 231.6 155.2 L 252.3 140.7 L 274.5 128.5 L 298.0 118.9 L 322.5 111.9 L 347.6 107.6 L 373.1 106.2 L 398.6 107.6 L 423.7 111.9 L 448.2 118.9 L 471.7 128.5 L 494.0 140.7 L 514.7 155.2 L 533.6 171.8 L 550.5 190.3 L 565.2 210.5 L 577.6 232.0 L 587.5 254.5 L 595.0 277.9 L 599.9 301.8 L 602.2 325.9 L 602.0 350.0 Z " fill="#241c0f"/><path transform="translate(114.6,162.0) scale(0.1)" d="M 211.1 700.0 L 178.1 0.0 L 118.1 0.0 L 85.1 700.0 Z M 46.0 700.0 L 250.1 700.0 L 250.1 670.0 L 46.0 670.0 Z M 148.1 48.0 L 538.1 48.0 L 538.1 -14.0 L 148.1 -14.0 Z M 148.1 376.0 L 493.1 376.0 L 493.1 280.0 L 148.1 280.0 Z " fill="#241c0f"/><path transform="translate(203.0,162.0) scale(0.1)" d="M 211.1 700.0 L 178.1 0.0 L 118.1 0.0 L 85.1 700.0 Z M 46.0 700.0 L 250.1 700.0 L 250.1 670.0 L 46.0 670.0 Z M 146.8 30.0 L 190.4 31.9 L 232.3 37.7 L 273.0 47.1 L 312.1 60.2 L 349.1 76.5 L 383.5 96.0 L 414.9 118.3 L 443.0 143.0 L 467.3 169.8 L 487.8 198.1 L 504.2 227.7 L 516.5 258.0 L 524.6 288.7 L 528.7 319.5 L 528.8 350.0 L 525.1 380.1 L 517.6 409.5 L 506.5 438.0 L 491.9 465.6 L 473.7 491.9 L 452.3 516.8 L 427.6 540.0 L 400.0 561.3 L 369.6 580.4 L 336.7 597.1 L 301.7 611.1 L 264.9 622.2 L 226.7 630.3 L 187.6 635.3 L 145.4 637.1 L 148.1 700.0 L 148.1 700.0 L 150.7 762.9 L 198.4 760.9 L 248.2 754.4 L 297.0 743.5 L 344.2 728.4 L 389.4 709.2 L 432.0 685.9 L 471.6 658.9 L 507.6 628.4 L 539.6 594.7 L 567.2 558.1 L 589.9 519.1 L 607.5 478.3 L 619.7 436.1 L 626.3 393.1 L 627.3 350.0 L 622.7 307.4 L 612.7 265.7 L 597.6 225.7 L 577.6 187.6 L 553.1 151.9 L 524.5 118.8 L 492.3 88.6 L 456.6 61.5 L 418.1 37.6 L 377.0 17.2 L 333.8 0.4 L 288.9 -12.9 L 242.7 -22.4 L 195.6 -28.1 L 149.3 -30.0 Z " fill="#241c0f"/><path transform="translate(270.3,162.0) scale(0.1)" d="M 211.1 700.0 L 178.1 0.0 L 118.1 0.0 L 85.1 700.0 Z M 46.0 700.0 L 250.1 700.0 L 250.1 670.0 L 46.0 670.0 Z M 148.1 48.0 L 548.1 48.0 L 548.1 -14.0 L 148.1 -14.0 Z M 148.1 399.1 L 498.1 399.1 L 498.1 300.9 L 148.1 300.9 Z M 148.1 744.7 L 553.1 744.7 L 553.1 619.3 L 148.1 619.3 Z " fill="#241c0f"/><path transform="translate(330.2,162.0) scale(0.1)" d="M 587.1 51.1 L 558.4 32.7 L 526.5 16.6 L 493.3 4.0 L 459.3 -4.8 L 424.6 -9.9 L 389.6 -11.2 L 354.7 -8.6 L 320.1 -2.3 L 286.3 7.8 L 253.6 21.5 L 222.2 38.8 L 192.5 59.4 L 164.8 83.3 L 139.4 110.1 L 116.6 139.6 L 96.6 171.6 L 79.6 205.7 L 65.9 241.7 L 55.6 279.0 L 49.0 317.5 L 46.0 356.5 L 46.8 395.9 L 51.5 435.1 L 59.9 473.7 L 72.2 511.2 L 88.2 547.3 L 107.8 581.5 L 130.8 613.4 L 157.0 642.5 L 186.2 668.6 L 218.0 691.2 L 252.0 709.9 L 287.8 724.7 L 325.1 735.1 L 363.3 741.1 L 401.9 742.7 L 440.4 739.6 L 478.3 732.1 L 515.1 720.2 L 550.4 704.1 L 583.3 684.3 L 602.8 669.8 L 532.1 570.8 L 516.6 581.4 L 494.0 594.0 L 471.1 603.8 L 447.5 611.0 L 423.6 615.4 L 399.4 617.2 L 375.3 616.3 L 351.2 612.8 L 327.6 606.5 L 304.4 597.6 L 282.0 586.1 L 260.5 572.1 L 240.2 555.6 L 221.2 536.7 L 203.8 515.7 L 188.3 492.6 L 174.8 467.7 L 163.6 441.2 L 154.7 413.4 L 148.5 384.5 L 144.9 355.0 L 144.1 325.0 L 146.2 295.0 L 151.1 265.4 L 158.9 236.4 L 169.5 208.4 L 182.8 181.8 L 198.6 156.9 L 216.8 134.0 L 237.2 113.5 L 259.6 95.5 L 283.7 80.3 L 309.2 68.2 L 335.7 59.2 L 363.0 53.5 L 390.8 51.3 L 418.6 52.4 L 446.1 56.9 L 472.9 64.8 L 498.8 75.9 L 523.4 90.1 L 547.9 108.2 Z M 445.4 397.0 L 660.4 397.0 L 660.4 299.0 L 445.4 299.0 Z M 721.2 618.0 L 709.4 348.0 L 611.4 348.0 L 599.7 618.0 Z " fill="#241c0f"/><path transform="translate(406.9,162.0) scale(0.1)" d="M 211.1 700.0 L 178.1 0.0 L 118.1 0.0 L 85.1 700.0 Z M 46.0 700.0 L 250.1 700.0 L 250.1 670.0 L 46.0 670.0 Z M 147.2 30.0 L 180.8 31.0 L 213.2 33.9 L 244.8 38.8 L 275.0 45.5 L 303.7 53.8 L 330.3 63.8 L 354.6 75.1 L 376.1 87.6 L 394.5 100.9 L 409.7 114.7 L 421.6 128.6 L 430.0 142.1 L 435.2 154.9 L 437.7 166.9 L 437.7 178.0 L 435.7 188.8 L 431.5 199.6 L 424.8 210.8 L 415.4 222.4 L 403.1 234.2 L 387.7 245.9 L 369.3 257.2 L 348.2 267.9 L 324.6 277.6 L 298.7 286.1 L 270.9 293.3 L 241.6 299.0 L 211.0 303.2 L 179.8 305.7 L 146.7 306.6 L 148.1 356.0 L 148.1 356.0 L 149.5 405.4 L 185.4 404.3 L 222.3 401.0 L 258.5 395.6 L 293.7 387.9 L 327.4 378.2 L 359.5 366.5 L 389.5 352.7 L 417.3 337.0 L 442.4 319.3 L 464.6 299.8 L 483.6 278.4 L 499.0 255.2 L 510.2 230.4 L 516.8 204.5 L 518.4 178.0 L 514.8 151.9 L 506.4 127.0 L 493.8 103.9 L 477.5 82.6 L 457.9 63.3 L 435.5 45.9 L 410.5 30.2 L 383.2 16.3 L 353.7 4.2 L 322.4 -6.1 L 289.5 -14.7 L 255.3 -21.4 L 220.1 -26.2 L 184.3 -29.0 L 148.9 -30.0 Z M 289.7 382.9 L 559.0 739.5 L 657.1 660.5 L 366.4 321.1 Z " fill="#241c0f"/><path transform="translate(477.2,162.0) scale(0.1)" d="M 211.1 700.0 L 178.1 0.0 L 118.1 0.0 L 85.1 700.0 Z M 46.0 700.0 L 250.1 700.0 L 250.1 670.0 L 46.0 670.0 Z M 148.1 48.0 L 548.1 48.0 L 548.1 -14.0 L 148.1 -14.0 Z M 148.1 399.1 L 498.1 399.1 L 498.1 300.9 L 148.1 300.9 Z M 148.1 744.7 L 553.1 744.7 L 553.1 619.3 L 148.1 619.3 Z " fill="#241c0f"/><path transform="translate(537.1,162.0) scale(0.1)" d="M 211.1 700.0 L 178.1 0.0 L 118.1 0.0 L 85.1 700.0 Z M 46.0 700.0 L 250.1 700.0 L 250.1 670.0 L 46.0 670.0 Z M 148.1 48.0 L 548.1 48.0 L 548.1 -14.0 L 148.1 -14.0 Z M 148.1 399.1 L 498.1 399.1 L 498.1 300.9 L 148.1 300.9 Z M 148.1 744.7 L 553.1 744.7 L 553.1 619.3 L 148.1 619.3 Z " fill="#241c0f"/><path transform="translate(597.0,162.0) scale(0.1)" d="M 449.4 103.5 L 358.6 7.1 L 237.4 -20.0 L 116.3 21.4 L 47.0 137.9 L 92.9 259.2 L 212.7 338.4 L 260.2 376.9 L 306.8 413.3 L 361.3 482.6 L 345.6 552.8 L 277.1 613.6 L 204.9 619.5 L 116.4 558.9 L 46.0 657.1 L 169.5 748.5 L 331.3 734.4 L 456.8 611.2 L 477.0 449.4 L 375.5 338.7 L 318.2 299.1 L 265.7 261.6 L 161.5 200.8 L 131.3 142.1 L 162.0 74.6 L 241.0 44.0 L 323.8 64.9 L 393.0 152.5 Z " fill="#241c0f"/><line x1="38" y1="256" x2="557" y2="256" stroke="#b89b6a" stroke-width="0.8"/><path transform="translate(40.0,254.0) scale(0.1)" d="M 211.1 700.0 L 178.1 0.0 L 118.1 0.0 L 85.1 700.0 Z M 46.0 700.0 L 250.1 700.0 L 250.1 670.0 L 46.0 670.0 Z M 147.2 30.0 L 180.8 31.0 L 213.2 33.9 L 244.8 38.8 L 275.0 45.5 L 303.7 53.8 L 330.3 63.8 L 354.6 75.1 L 376.1 87.6 L 394.5 100.9 L 409.7 114.7 L 421.6 128.6 L 430.0 142.1 L 435.2 154.9 L 437.7 166.9 L 437.7 178.0 L 435.7 188.8 L 431.5 199.6 L 424.8 210.8 L 415.4 222.4 L 403.1 234.2 L 387.7 245.9 L 369.3 257.2 L 348.2 267.9 L 324.6 277.6 L 298.7 286.1 L 270.9 293.3 L 241.6 299.0 L 211.0 303.2 L 179.8 305.7 L 146.7 306.6 L 148.1 356.0 L 148.1 356.0 L 149.5 405.4 L 185.4 404.3 L 222.3 401.0 L 258.5 395.6 L 293.7 387.9 L 327.4 378.2 L 359.5 366.5 L 389.5 352.7 L 417.3 337.0 L 442.4 319.3 L 464.6 299.8 L 483.6 278.4 L 499.0 255.2 L 510.2 230.4 L 516.8 204.5 L 518.4 178.0 L 514.8 151.9 L 506.4 127.0 L 493.8 103.9 L 477.5 82.6 L 457.9 63.3 L 435.5 45.9 L 410.5 30.2 L 383.2 16.3 L 353.7 4.2 L 322.4 -6.1 L 289.5 -14.7 L 255.3 -21.4 L 220.1 -26.2 L 184.3 -29.0 L 148.9 -30.0 Z M 289.7 382.9 L 559.0 739.5 L 657.1 660.5 L 366.4 321.1 Z " fill="#241c0f"/><path transform="translate(110.3,254.0) scale(0.1)" d="M 164.1 721.9 L 393.2 10.4 L 336.9 -10.4 L 46.0 678.1 Z M 684.1 678.1 L 393.2 -10.4 L 336.9 10.4 L 566.0 721.9 Z M 215.1 550.9 L 515.1 550.9 L 515.1 439.1 L 215.1 439.1 Z " fill="#241c0f"/><path transform="translate(183.3,254.0) scale(0.1)" d="M 211.1 700.0 L 178.1 0.0 L 118.1 0.0 L 85.1 700.0 Z M 46.0 700.0 L 250.1 700.0 L 250.1 670.0 L 46.0 670.0 Z M 146.8 30.0 L 190.4 31.9 L 232.3 37.7 L 273.0 47.1 L 312.1 60.2 L 349.1 76.5 L 383.5 96.0 L 414.9 118.3 L 443.0 143.0 L 467.3 169.8 L 487.8 198.1 L 504.2 227.7 L 516.5 258.0 L 524.6 288.7 L 528.7 319.5 L 528.8 350.0 L 525.1 380.1 L 517.6 409.5 L 506.5 438.0 L 491.9 465.6 L 473.7 491.9 L 452.3 516.8 L 427.6 540.0 L 400.0 561.3 L 369.6 580.4 L 336.7 597.1 L 301.7 611.1 L 264.9 622.2 L 226.7 630.3 L 187.6 635.3 L 145.4 637.1 L 148.1 700.0 L 148.1 700.0 L 150.7 762.9 L 198.4 760.9 L 248.2 754.4 L 297.0 743.5 L 344.2 728.4 L 389.4 709.2 L 432.0 685.9 L 471.6 658.9 L 507.6 628.4 L 539.6 594.7 L 567.2 558.1 L 589.9 519.1 L 607.5 478.3 L 619.7 436.1 L 626.3 393.1 L 627.3 350.0 L 622.7 307.4 L 612.7 265.7 L 597.6 225.7 L 577.6 187.6 L 553.1 151.9 L 524.5 118.8 L 492.3 88.6 L 456.6 61.5 L 418.1 37.6 L 377.0 17.2 L 333.8 0.4 L 288.9 -12.9 L 242.7 -22.4 L 195.6 -28.1 L 149.3 -30.0 Z " fill="#241c0f"/><path transform="translate(250.6,254.0) scale(0.1)" d="M 211.1 700.0 L 178.1 0.0 L 118.1 0.0 L 85.1 700.0 Z M 46.0 700.0 L 250.1 700.0 L 250.1 670.0 L 46.0 670.0 Z " fill="#241c0f"/><path transform="translate(280.2,254.0) scale(0.1)" d="M 164.1 721.9 L 393.2 10.4 L 336.9 -10.4 L 46.0 678.1 Z M 684.1 678.1 L 393.2 -10.4 L 336.9 10.4 L 566.0 721.9 Z M 215.1 550.9 L 515.1 550.9 L 515.1 439.1 L 215.1 439.1 Z " fill="#241c0f"/><path transform="translate(353.2,254.0) scale(0.1)" d="M 211.1 700.0 L 178.1 0.0 L 118.1 0.0 L 85.1 700.0 Z M 46.0 700.0 L 250.1 700.0 L 250.1 670.0 L 46.0 670.0 Z M 661.1 700.0 L 628.1 0.0 L 568.1 0.0 L 535.1 700.0 Z M 496.0 700.0 L 700.1 700.0 L 700.1 670.0 L 496.0 670.0 Z M 122.8 16.2 L 545.1 734.1 L 651.1 665.9 L 173.3 -16.2 Z " fill="#241c0f"/><path transform="translate(427.8,254.0) scale(0.1)" d="M 572.2 41.0 L 542.7 24.2 L 510.1 9.8 L 476.5 -0.9 L 442.0 -7.8 L 407.1 -11.0 L 372.2 -10.4 L 337.4 -5.9 L 303.2 2.3 L 269.9 14.2 L 237.7 29.7 L 207.2 48.7 L 178.5 71.0 L 151.9 96.3 L 127.7 124.6 L 106.3 155.3 L 87.8 188.4 L 72.4 223.5 L 60.4 260.2 L 51.9 298.1 L 47.1 336.9 L 46.0 376.2 L 48.7 415.5 L 55.3 454.5 L 65.7 492.6 L 79.8 529.5 L 97.6 564.7 L 119.0 597.8 L 143.6 628.3 L 171.3 656.0 L 201.8 680.3 L 234.8 701.0 L 269.8 717.8 L 306.4 730.4 L 344.2 738.7 L 382.6 742.5 L 421.2 741.7 L 459.5 736.4 L 496.9 726.7 L 533.1 712.7 L 566.9 694.8 L 587.2 681.5 L 521.7 578.2 L 505.7 587.9 L 482.7 599.3 L 459.4 607.7 L 435.7 613.5 L 411.6 616.7 L 387.4 617.1 L 363.3 614.9 L 339.4 610.0 L 316.0 602.4 L 293.2 592.2 L 271.2 579.4 L 250.2 564.1 L 230.6 546.4 L 212.4 526.5 L 195.9 504.4 L 181.4 480.4 L 169.0 454.6 L 158.9 427.4 L 151.3 399.1 L 146.4 369.8 L 144.2 340.0 L 144.9 310.0 L 148.4 280.1 L 154.7 250.8 L 163.9 222.2 L 175.9 194.9 L 190.4 169.1 L 207.5 145.2 L 226.8 123.4 L 248.3 104.1 L 271.5 87.5 L 296.3 73.8 L 322.4 63.3 L 349.4 56.0 L 377.0 52.0 L 404.8 51.4 L 432.4 54.3 L 459.7 60.5 L 486.1 70.0 L 511.3 82.6 L 536.7 99.2 Z " fill="#241c0f"/><path transform="translate(491.1,254.0) scale(0.1)" d="M 211.1 700.0 L 178.1 0.0 L 118.1 0.0 L 85.1 700.0 Z M 46.0 700.0 L 250.1 700.0 L 250.1 670.0 L 46.0 670.0 Z M 148.1 48.0 L 548.1 48.0 L 548.1 -14.0 L 148.1 -14.0 Z M 148.1 399.1 L 498.1 399.1 L 498.1 300.9 L 148.1 300.9 Z M 148.1 744.7 L 553.1 744.7 L 553.1 619.3 L 148.1 619.3 Z " fill="#241c0f"/><line x1="38" y1="348" x2="401" y2="348" stroke="#b89b6a" stroke-width="0.8"/><path transform="translate(40.0,346.0) scale(0.1)" d="M 699.3 340.0 L 696.0 306.0 L 689.2 272.7 L 679.1 240.4 L 665.7 209.5 L 649.2 180.3 L 629.9 153.1 L 608.1 128.0 L 583.8 105.4 L 557.6 85.5 L 529.5 68.3 L 499.9 54.1 L 469.2 42.9 L 437.5 34.9 L 405.2 30.0 L 372.6 28.4 L 340.0 30.0 L 307.8 34.9 L 276.1 42.9 L 245.3 54.1 L 215.8 68.3 L 187.7 85.5 L 161.4 105.4 L 137.2 128.0 L 115.3 153.1 L 96.0 180.3 L 79.6 209.5 L 66.2 240.4 L 56.0 272.7 L 49.2 306.0 L 46.0 340.0 L 46.4 374.3 L 50.4 408.5 L 58.0 442.2 L 69.3 475.0 L 84.1 506.6 L 102.2 536.5 L 123.5 564.3 L 147.8 589.7 L 174.7 612.5 L 203.9 632.2 L 235.2 648.7 L 268.1 661.7 L 302.2 671.1 L 337.2 676.8 L 372.6 678.7 L 408.0 676.8 L 443.0 671.1 L 477.2 661.7 L 510.1 648.7 L 541.3 632.2 L 570.6 612.5 L 597.5 589.7 L 621.7 564.3 L 643.0 536.5 L 661.2 506.6 L 676.0 475.0 L 687.2 442.2 L 694.9 408.5 L 698.9 374.3 Z M 599.3 363.8 L 594.2 387.1 L 586.8 409.6 L 577.2 431.1 L 565.6 451.4 L 552.0 470.3 L 536.7 487.7 L 519.8 503.5 L 501.5 517.4 L 481.9 529.3 L 461.3 539.3 L 439.9 547.1 L 417.8 552.7 L 395.3 556.1 L 372.6 557.3 L 349.9 556.1 L 327.4 552.7 L 305.3 547.1 L 283.9 539.3 L 263.3 529.3 L 243.8 517.4 L 225.5 503.5 L 208.5 487.7 L 193.2 470.3 L 179.7 451.4 L 168.0 431.1 L 158.4 409.6 L 151.0 387.1 L 145.9 363.8 L 143.3 340.0 L 143.1 315.9 L 145.4 291.7 L 150.3 267.8 L 157.7 244.3 L 167.7 221.7 L 180.1 200.1 L 194.9 180.0 L 211.8 161.4 L 230.8 144.7 L 251.5 130.2 L 273.8 118.0 L 297.3 108.3 L 321.9 101.3 L 347.1 97.0 L 372.6 95.6 L 398.2 97.0 L 423.4 101.3 L 447.9 108.3 L 471.5 118.0 L 493.8 130.2 L 514.5 144.7 L 533.4 161.4 L 550.4 180.0 L 565.1 200.1 L 577.5 221.7 L 587.5 244.3 L 595.0 267.8 L 599.9 291.7 L 602.2 315.9 L 602.0 340.0 Z M 374.7 530.8 L 584.8 736.0 L 670.4 644.0 L 450.5 449.2 Z " fill="#241c0f"/><path transform="translate(114.5,346.0) scale(0.1)" d="M 211.1 700.0 L 178.1 0.0 L 118.1 0.0 L 85.1 700.0 Z M 46.0 700.0 L 250.1 700.0 L 250.1 670.0 L 46.0 670.0 Z M 148.1 48.0 L 548.1 48.0 L 548.1 -14.0 L 148.1 -14.0 Z M 148.1 399.1 L 498.1 399.1 L 498.1 300.9 L 148.1 300.9 Z M 148.1 744.7 L 553.1 744.7 L 553.1 619.3 L 148.1 619.3 Z " fill="#241c0f"/><path transform="translate(174.4,346.0) scale(0.1)" d="M 211.1 700.0 L 178.1 0.0 L 118.1 0.0 L 85.1 700.0 Z M 46.0 700.0 L 250.1 700.0 L 250.1 670.0 L 46.0 670.0 Z M 661.1 700.0 L 628.1 0.0 L 568.1 0.0 L 535.1 700.0 Z M 496.0 700.0 L 700.1 700.0 L 700.1 670.0 L 496.0 670.0 Z M 122.8 16.2 L 545.1 734.1 L 651.1 665.9 L 173.3 -16.2 Z " fill="#241c0f"/><path transform="translate(249.0,346.0) scale(0.1)" d="M 164.1 721.9 L 393.2 10.4 L 336.9 -10.4 L 46.0 678.1 Z M 684.1 678.1 L 393.2 -10.4 L 336.9 10.4 L 566.0 721.9 Z M 215.1 550.9 L 515.1 550.9 L 515.1 439.1 L 215.1 439.1 Z " fill="#241c0f"/><path transform="translate(322.0,346.0) scale(0.1)" d="M 211.1 700.0 L 178.1 0.0 L 118.1 0.0 L 85.1 700.0 Z M 46.0 700.0 L 250.1 700.0 L 250.1 670.0 L 46.0 670.0 Z M 641.1 700.0 L 608.1 0.0 L 548.1 0.0 L 515.1 700.0 Z M 476.0 700.0 L 680.1 700.0 L 680.1 670.0 L 476.0 670.0 Z M 148.1 399.1 L 578.1 399.1 L 578.1 300.9 L 148.1 300.9 Z " fill="#241c0f"/><line x1="38" y1="440" x2="869" y2="440" stroke="#b89b6a" stroke-width="0.8"/><path transform="translate(40.0,438.0) scale(0.1)" d="M 164.1 721.9 L 393.2 10.4 L 336.9 -10.4 L 46.0 678.1 Z M 684.1 678.1 L 393.2 -10.4 L 336.9 10.4 L 566.0 721.9 Z M 215.1 550.9 L 515.1 550.9 L 515.1 439.1 L 215.1 439.1 Z " fill="#241c0f"/><path transform="translate(113.0,438.0) scale(0.1)" d="M 211.1 700.0 L 178.1 0.0 L 118.1 0.0 L 85.1 700.0 Z M 46.0 700.0 L 250.1 700.0 L 250.1 670.0 L 46.0 670.0 Z M 147.2 27.0 L 181.4 27.9 L 214.3 30.8 L 246.4 35.6 L 277.2 42.3 L 306.4 50.7 L 333.5 60.7 L 358.1 72.0 L 380.1 84.5 L 398.9 97.9 L 414.4 111.7 L 426.4 125.7 L 435.0 139.2 L 440.4 152.1 L 442.8 163.9 L 442.9 175.0 L 440.8 185.7 L 436.6 196.4 L 429.9 207.6 L 420.3 219.2 L 407.8 231.1 L 392.1 242.9 L 373.4 254.2 L 351.9 264.9 L 327.8 274.6 L 301.4 283.2 L 273.1 290.4 L 243.3 296.1 L 212.2 300.3 L 180.3 302.9 L 146.7 303.7 L 148.1 353.0 L 148.1 353.0 L 149.4 402.3 L 185.8 401.2 L 223.2 397.9 L 259.9 392.4 L 295.5 384.8 L 329.7 375.1 L 362.2 363.4 L 392.6 349.7 L 420.6 334.0 L 446.1 316.4 L 468.6 296.9 L 487.9 275.6 L 503.5 252.4 L 514.9 227.6 L 521.6 201.5 L 523.2 175.0 L 519.6 148.9 L 511.1 123.9 L 498.3 100.8 L 481.8 79.5 L 462.0 60.3 L 439.3 42.9 L 414.0 27.2 L 386.3 13.4 L 356.5 1.3 L 324.7 -9.0 L 291.4 -17.5 L 256.8 -24.2 L 221.1 -29.0 L 184.8 -32.0 L 148.9 -33.0 Z M 146.8 392.8 L 184.8 393.8 L 221.1 396.7 L 256.4 401.4 L 290.3 407.9 L 322.3 416.1 L 352.0 425.7 L 378.8 436.7 L 402.5 448.6 L 422.7 461.2 L 438.9 474.0 L 451.1 486.4 L 459.3 497.8 L 464.0 507.6 L 465.8 515.5 L 465.7 522.0 L 464.2 528.1 L 461.1 535.1 L 455.5 543.6 L 446.7 553.5 L 434.2 564.3 L 417.9 575.5 L 397.9 586.7 L 374.6 597.3 L 348.1 607.1 L 319.0 615.8 L 287.6 623.2 L 254.3 629.1 L 219.7 633.5 L 184.1 636.1 L 146.5 637.0 L 148.1 700.0 L 148.1 700.0 L 149.6 763.0 L 190.4 762.0 L 232.4 758.8 L 273.5 753.4 L 313.6 746.0 L 352.1 736.5 L 388.8 724.9 L 423.4 711.2 L 455.5 695.5 L 485.0 677.7 L 511.4 657.7 L 534.6 635.3 L 553.9 610.4 L 568.6 582.9 L 577.8 553.1 L 580.4 522.0 L 576.3 491.3 L 565.8 462.4 L 550.1 436.2 L 530.1 412.8 L 506.7 392.0 L 480.2 373.5 L 450.9 357.2 L 419.1 342.8 L 385.0 330.2 L 348.8 319.6 L 310.9 310.9 L 271.5 304.0 L 231.0 299.1 L 189.7 296.1 L 149.3 295.2 Z " fill="#241c0f"/><path transform="translate(175.6,438.0) scale(0.1)" d="M 572.2 41.0 L 542.7 24.2 L 510.1 9.8 L 476.5 -0.9 L 442.0 -7.8 L 407.1 -11.0 L 372.2 -10.4 L 337.4 -5.9 L 303.2 2.3 L 269.9 14.2 L 237.7 29.7 L 207.2 48.7 L 178.5 71.0 L 151.9 96.3 L 127.7 124.6 L 106.3 155.3 L 87.8 188.4 L 72.4 223.5 L 60.4 260.2 L 51.9 298.1 L 47.1 336.9 L 46.0 376.2 L 48.7 415.5 L 55.3 454.5 L 65.7 492.6 L 79.8 529.5 L 97.6 564.7 L 119.0 597.8 L 143.6 628.3 L 171.3 656.0 L 201.8 680.3 L 234.8 701.0 L 269.8 717.8 L 306.4 730.4 L 344.2 738.7 L 382.6 742.5 L 421.2 741.7 L 459.5 736.4 L 496.9 726.7 L 533.1 712.7 L 566.9 694.8 L 587.2 681.5 L 521.7 578.2 L 505.7 587.9 L 482.7 599.3 L 459.4 607.7 L 435.7 613.5 L 411.6 616.7 L 387.4 617.1 L 363.3 614.9 L 339.4 610.0 L 316.0 602.4 L 293.2 592.2 L 271.2 579.4 L 250.2 564.1 L 230.6 546.4 L 212.4 526.5 L 195.9 504.4 L 181.4 480.4 L 169.0 454.6 L 158.9 427.4 L 151.3 399.1 L 146.4 369.8 L 144.2 340.0 L 144.9 310.0 L 148.4 280.1 L 154.7 250.8 L 163.9 222.2 L 175.9 194.9 L 190.4 169.1 L 207.5 145.2 L 226.8 123.4 L 248.3 104.1 L 271.5 87.5 L 296.3 73.8 L 322.4 63.3 L 349.4 56.0 L 377.0 52.0 L 404.8 51.4 L 432.4 54.3 L 459.7 60.5 L 486.1 70.0 L 511.3 82.6 L 536.7 99.2 Z " fill="#241c0f"/><path transform="translate(238.9,438.0) scale(0.1)" d="M 211.1 700.0 L 178.1 0.0 L 118.1 0.0 L 85.1 700.0 Z M 46.0 700.0 L 250.1 700.0 L 250.1 670.0 L 46.0 670.0 Z M 146.8 30.0 L 190.4 31.9 L 232.3 37.7 L 273.0 47.1 L 312.1 60.2 L 349.1 76.5 L 383.5 96.0 L 414.9 118.3 L 443.0 143.0 L 467.3 169.8 L 487.8 198.1 L 504.2 227.7 L 516.5 258.0 L 524.6 288.7 L 528.7 319.5 L 528.8 350.0 L 525.1 380.1 L 517.6 409.5 L 506.5 438.0 L 491.9 465.6 L 473.7 491.9 L 452.3 516.8 L 427.6 540.0 L 400.0 561.3 L 369.6 580.4 L 336.7 597.1 L 301.7 611.1 L 264.9 622.2 L 226.7 630.3 L 187.6 635.3 L 145.4 637.1 L 148.1 700.0 L 148.1 700.0 L 150.7 762.9 L 198.4 760.9 L 248.2 754.4 L 297.0 743.5 L 344.2 728.4 L 389.4 709.2 L 432.0 685.9 L 471.6 658.9 L 507.6 628.4 L 539.6 594.7 L 567.2 558.1 L 589.9 519.1 L 607.5 478.3 L 619.7 436.1 L 626.3 393.1 L 627.3 350.0 L 622.7 307.4 L 612.7 265.7 L 597.6 225.7 L 577.6 187.6 L 553.1 151.9 L 524.5 118.8 L 492.3 88.6 L 456.6 61.5 L 418.1 37.6 L 377.0 17.2 L 333.8 0.4 L 288.9 -12.9 L 242.7 -22.4 L 195.6 -28.1 L 149.3 -30.0 Z " fill="#241c0f"/><path transform="translate(306.2,438.0) scale(0.1)" d="M 211.1 700.0 L 178.1 0.0 L 118.1 0.0 L 85.1 700.0 Z M 46.0 700.0 L 250.1 700.0 L 250.1 670.0 L 46.0 670.0 Z M 148.1 48.0 L 548.1 48.0 L 548.1 -14.0 L 148.1 -14.0 Z M 148.1 399.1 L 498.1 399.1 L 498.1 300.9 L 148.1 300.9 Z M 148.1 744.7 L 553.1 744.7 L 553.1 619.3 L 148.1 619.3 Z " fill="#241c0f"/><path transform="translate(366.1,438.0) scale(0.1)" d="M 211.1 700.0 L 178.1 0.0 L 118.1 0.0 L 85.1 700.0 Z M 46.0 700.0 L 250.1 700.0 L 250.1 670.0 L 46.0 670.0 Z M 148.1 48.0 L 538.1 48.0 L 538.1 -14.0 L 148.1 -14.0 Z M 148.1 376.0 L 493.1 376.0 L 493.1 280.0 L 148.1 280.0 Z " fill="#241c0f"/><path transform="translate(424.5,438.0) scale(0.1)" d="M 587.1 51.1 L 558.4 32.7 L 526.5 16.6 L 493.3 4.0 L 459.3 -4.8 L 424.6 -9.9 L 389.6 -11.2 L 354.7 -8.6 L 320.1 -2.3 L 286.3 7.8 L 253.6 21.5 L 222.2 38.8 L 192.5 59.4 L 164.8 83.3 L 139.4 110.1 L 116.6 139.6 L 96.6 171.6 L 79.6 205.7 L 65.9 241.7 L 55.6 279.0 L 49.0 317.5 L 46.0 356.5 L 46.8 395.9 L 51.5 435.1 L 59.9 473.7 L 72.2 511.2 L 88.2 547.3 L 107.8 581.5 L 130.8 613.4 L 157.0 642.5 L 186.2 668.6 L 218.0 691.2 L 252.0 709.9 L 287.8 724.7 L 325.1 735.1 L 363.3 741.1 L 401.9 742.7 L 440.4 739.6 L 478.3 732.1 L 515.1 720.2 L 550.4 704.1 L 583.3 684.3 L 602.8 669.8 L 532.1 570.8 L 516.6 581.4 L 494.0 594.0 L 471.1 603.8 L 447.5 611.0 L 423.6 615.4 L 399.4 617.2 L 375.3 616.3 L 351.2 612.8 L 327.6 606.5 L 304.4 597.6 L 282.0 586.1 L 260.5 572.1 L 240.2 555.6 L 221.2 536.7 L 203.8 515.7 L 188.3 492.6 L 174.8 467.7 L 163.6 441.2 L 154.7 413.4 L 148.5 384.5 L 144.9 355.0 L 144.1 325.0 L 146.2 295.0 L 151.1 265.4 L 158.9 236.4 L 169.5 208.4 L 182.8 181.8 L 198.6 156.9 L 216.8 134.0 L 237.2 113.5 L 259.6 95.5 L 283.7 80.3 L 309.2 68.2 L 335.7 59.2 L 363.0 53.5 L 390.8 51.3 L 418.6 52.4 L 446.1 56.9 L 472.9 64.8 L 498.8 75.9 L 523.4 90.1 L 547.9 108.2 Z M 445.4 397.0 L 660.4 397.0 L 660.4 299.0 L 445.4 299.0 Z M 721.2 618.0 L 709.4 348.0 L 611.4 348.0 L 599.7 618.0 Z " fill="#241c0f"/><path transform="translate(501.2,438.0) scale(0.1)" d="M 211.1 700.0 L 178.1 0.0 L 118.1 0.0 L 85.1 700.0 Z M 46.0 700.0 L 250.1 700.0 L 250.1 670.0 L 46.0 670.0 Z M 641.1 700.0 L 608.1 0.0 L 548.1 0.0 L 515.1 700.0 Z M 476.0 700.0 L 680.1 700.0 L 680.1 670.0 L 476.0 670.0 Z M 148.1 399.1 L 578.1 399.1 L 578.1 300.9 L 148.1 300.9 Z " fill="#241c0f"/><path transform="translate(573.8,438.0) scale(0.1)" d="M 211.1 700.0 L 178.1 0.0 L 118.1 0.0 L 85.1 700.0 Z M 46.0 700.0 L 250.1 700.0 L 250.1 670.0 L 46.0 670.0 Z " fill="#241c0f"/><path transform="translate(603.4,438.0) scale(0.1)" d="M 323.3 0.0 L 297.7 487.5 L 287.4 561.9 L 266.4 594.1 L 224.2 607.5 L 178.3 598.8 L 140.7 553.6 L 46.0 626.4 L 108.4 711.2 L 232.5 736.5 L 350.3 695.9 L 403.3 598.1 L 409.0 492.5 L 383.3 0.0 Z " fill="#241c0f"/><path transform="translate(648.9,438.0) scale(0.1)" d="M 211.1 700.0 L 178.1 0.0 L 118.1 0.0 L 85.1 700.0 Z M 46.0 700.0 L 250.1 700.0 L 250.1 670.0 L 46.0 670.0 Z M 189.3 385.8 L 597.2 23.1 L 558.9 -23.1 L 126.8 310.2 Z M 127.4 386.3 L 558.7 749.2 L 637.4 650.8 L 188.7 309.7 Z " fill="#241c0f"/><path transform="translate(717.2,438.0) scale(0.1)" d="M 211.1 700.0 L 178.1 0.0 L 118.1 0.0 L 85.1 700.0 Z M 46.0 700.0 L 250.1 700.0 L 250.1 670.0 L 46.0 670.0 Z M 148.1 744.7 L 533.1 744.7 L 533.1 619.3 L 148.1 619.3 Z " fill="#241c0f"/><path transform="translate(775.1,438.0) scale(0.1)" d="M 211.1 700.0 L 178.1 0.0 L 118.1 0.0 L 85.1 700.0 Z M 46.0 700.0 L 250.1 700.0 L 250.1 670.0 L 46.0 670.0 Z M 791.1 700.0 L 758.1 0.0 L 698.1 0.0 L 665.1 700.0 Z M 626.0 700.0 L 830.1 700.0 L 830.1 670.0 L 626.0 670.0 Z M 122.5 26.8 L 393.1 479.7 L 483.1 420.3 L 173.6 -6.8 Z M 702.5 -6.8 L 393.1 420.3 L 483.1 479.7 L 753.6 26.8 Z " fill="#241c0f"/><line x1="38" y1="532" x2="920" y2="532" stroke="#b89b6a" stroke-width="0.8"/><path transform="translate(40.0,530.0) scale(0.1)" d="M 211.1 700.0 L 178.1 0.0 L 118.1 0.0 L 85.1 700.0 Z M 46.0 700.0 L 250.1 700.0 L 250.1 670.0 L 46.0 670.0 Z M 661.1 700.0 L 628.1 0.0 L 568.1 0.0 L 535.1 700.0 Z M 496.0 700.0 L 700.1 700.0 L 700.1 670.0 L 496.0 670.0 Z M 122.8 16.2 L 545.1 734.1 L 651.1 665.9 L 173.3 -16.2 Z " fill="#241c0f"/><path transform="translate(114.6,530.0) scale(0.1)" d="M 700.3 350.0 L 697.0 316.0 L 690.2 282.6 L 680.1 250.3 L 666.7 219.3 L 650.2 190.0 L 630.9 162.7 L 609.0 137.6 L 584.7 115.0 L 558.4 95.0 L 530.3 77.8 L 500.7 63.5 L 469.8 52.4 L 438.1 44.3 L 405.8 39.4 L 373.1 37.8 L 340.5 39.4 L 308.1 44.3 L 276.4 52.4 L 245.6 63.5 L 216.0 77.8 L 187.9 95.0 L 161.5 115.0 L 137.3 137.6 L 115.4 162.7 L 96.1 190.0 L 79.6 219.3 L 66.2 250.3 L 56.0 282.6 L 49.2 316.0 L 46.0 350.0 L 46.4 384.3 L 50.4 418.6 L 58.1 452.4 L 69.4 485.2 L 84.2 516.8 L 102.4 546.7 L 123.7 574.6 L 148.0 600.0 L 174.9 622.8 L 204.2 642.5 L 235.5 659.0 L 268.5 672.0 L 302.7 681.5 L 337.7 687.2 L 373.1 689.1 L 408.6 687.2 L 443.6 681.5 L 477.8 672.0 L 510.7 659.0 L 542.0 642.5 L 571.3 622.8 L 598.3 600.0 L 622.5 574.6 L 643.9 546.7 L 662.1 516.8 L 676.9 485.2 L 688.2 452.4 L 695.8 418.6 L 699.9 384.3 Z M 599.3 373.8 L 594.3 397.0 L 586.9 419.5 L 577.3 440.9 L 565.7 461.2 L 552.2 480.1 L 536.9 497.5 L 520.0 513.2 L 501.8 527.0 L 482.2 539.0 L 461.7 548.9 L 440.3 556.7 L 418.3 562.4 L 395.8 565.8 L 373.1 566.9 L 350.4 565.8 L 328.0 562.4 L 305.9 556.7 L 284.6 548.9 L 264.0 539.0 L 244.5 527.0 L 226.2 513.2 L 209.4 497.5 L 194.1 480.1 L 180.5 461.2 L 168.9 440.9 L 159.4 419.5 L 152.0 397.0 L 146.9 373.8 L 144.3 350.0 L 144.1 325.9 L 146.4 301.8 L 151.3 277.9 L 158.7 254.5 L 168.7 232.0 L 181.1 210.5 L 195.8 190.3 L 212.7 171.8 L 231.6 155.2 L 252.3 140.7 L 274.5 128.5 L 298.0 118.9 L 322.5 111.9 L 347.6 107.6 L 373.1 106.2 L 398.6 107.6 L 423.7 111.9 L 448.2 118.9 L 471.7 128.5 L 494.0 140.7 L 514.7 155.2 L 533.6 171.8 L 550.5 190.3 L 565.2 210.5 L 577.6 232.0 L 587.5 254.5 L 595.0 277.9 L 599.9 301.8 L 602.2 325.9 L 602.0 350.0 Z " fill="#241c0f"/><path transform="translate(189.2,530.0) scale(0.1)" d="M 211.1 700.0 L 178.1 0.0 L 118.1 0.0 L 85.1 700.0 Z M 46.0 700.0 L 250.1 700.0 L 250.1 670.0 L 46.0 670.0 Z M 147.3 30.0 L 184.1 31.0 L 219.7 34.0 L 254.4 38.9 L 287.7 45.7 L 319.3 54.3 L 348.7 64.5 L 375.5 76.1 L 399.3 88.8 L 419.8 102.5 L 436.7 116.6 L 449.8 130.8 L 459.1 144.6 L 464.9 157.5 L 467.5 169.2 L 467.6 180.0 L 465.5 190.3 L 461.1 200.9 L 454.0 212.1 L 443.8 223.9 L 430.2 236.0 L 413.2 248.0 L 392.9 259.7 L 369.5 270.6 L 343.3 280.6 L 314.6 289.3 L 283.8 296.7 L 251.4 302.6 L 217.7 306.9 L 183.1 309.5 L 146.8 310.4 L 148.1 360.0 L 148.1 360.0 L 149.4 409.6 L 188.3 408.5 L 228.1 405.2 L 267.2 399.8 L 305.1 392.1 L 341.5 382.4 L 376.1 370.7 L 408.4 356.9 L 438.3 341.2 L 465.4 323.6 L 489.5 304.0 L 510.1 282.6 L 526.9 259.2 L 539.3 233.9 L 546.7 207.3 L 548.5 180.0 L 544.7 153.1 L 535.5 127.7 L 521.8 104.2 L 504.1 82.7 L 483.0 63.4 L 458.8 45.9 L 431.9 30.3 L 402.4 16.4 L 370.6 4.3 L 336.8 -6.1 L 301.2 -14.6 L 264.2 -21.3 L 226.1 -26.1 L 187.3 -29.0 L 148.8 -30.0 Z " fill="#241c0f"/><path transform="translate(248.7,530.0) scale(0.1)" d="M 699.3 340.0 L 696.0 306.0 L 689.2 272.7 L 679.1 240.4 L 665.7 209.5 L 649.2 180.3 L 629.9 153.1 L 608.1 128.0 L 583.8 105.4 L 557.6 85.5 L 529.5 68.3 L 499.9 54.1 L 469.2 42.9 L 437.5 34.9 L 405.2 30.0 L 372.6 28.4 L 340.0 30.0 L 307.8 34.9 L 276.1 42.9 L 245.3 54.1 L 215.8 68.3 L 187.7 85.5 L 161.4 105.4 L 137.2 128.0 L 115.3 153.1 L 96.0 180.3 L 79.6 209.5 L 66.2 240.4 L 56.0 272.7 L 49.2 306.0 L 46.0 340.0 L 46.4 374.3 L 50.4 408.5 L 58.0 442.2 L 69.3 475.0 L 84.1 506.6 L 102.2 536.5 L 123.5 564.3 L 147.8 589.7 L 174.7 612.5 L 203.9 632.2 L 235.2 648.7 L 268.1 661.7 L 302.2 671.1 L 337.2 676.8 L 372.6 678.7 L 408.0 676.8 L 443.0 671.1 L 477.2 661.7 L 510.1 648.7 L 541.3 632.2 L 570.6 612.5 L 597.5 589.7 L 621.7 564.3 L 643.0 536.5 L 661.2 506.6 L 676.0 475.0 L 687.2 442.2 L 694.9 408.5 L 698.9 374.3 Z M 599.3 363.8 L 594.2 387.1 L 586.8 409.6 L 577.2 431.1 L 565.6 451.4 L 552.0 470.3 L 536.7 487.7 L 519.8 503.5 L 501.5 517.4 L 481.9 529.3 L 461.3 539.3 L 439.9 547.1 L 417.8 552.7 L 395.3 556.1 L 372.6 557.3 L 349.9 556.1 L 327.4 552.7 L 305.3 547.1 L 283.9 539.3 L 263.3 529.3 L 243.8 517.4 L 225.5 503.5 L 208.5 487.7 L 193.2 470.3 L 179.7 451.4 L 168.0 431.1 L 158.4 409.6 L 151.0 387.1 L 145.9 363.8 L 143.3 340.0 L 143.1 315.9 L 145.4 291.7 L 150.3 267.8 L 157.7 244.3 L 167.7 221.7 L 180.1 200.1 L 194.9 180.0 L 211.8 161.4 L 230.8 144.7 L 251.5 130.2 L 273.8 118.0 L 297.3 108.3 L 321.9 101.3 L 347.1 97.0 L 372.6 95.6 L 398.2 97.0 L 423.4 101.3 L 447.9 108.3 L 471.5 118.0 L 493.8 130.2 L 514.5 144.7 L 533.4 161.4 L 550.4 180.0 L 565.1 200.1 L 577.5 221.7 L 587.5 244.3 L 595.0 267.8 L 599.9 291.7 L 602.2 315.9 L 602.0 340.0 Z M 374.7 530.8 L 584.8 736.0 L 670.4 644.0 L 450.5 449.2 Z " fill="#241c0f"/><path transform="translate(323.2,530.0) scale(0.1)" d="M 211.1 700.0 L 178.1 0.0 L 118.1 0.0 L 85.1 700.0 Z M 46.0 700.0 L 250.1 700.0 L 250.1 670.0 L 46.0 670.0 Z M 147.2 30.0 L 180.8 31.0 L 213.2 33.9 L 244.8 38.8 L 275.0 45.5 L 303.7 53.8 L 330.3 63.8 L 354.6 75.1 L 376.1 87.6 L 394.5 100.9 L 409.7 114.7 L 421.6 128.6 L 430.0 142.1 L 435.2 154.9 L 437.7 166.9 L 437.7 178.0 L 435.7 188.8 L 431.5 199.6 L 424.8 210.8 L 415.4 222.4 L 403.1 234.2 L 387.7 245.9 L 369.3 257.2 L 348.2 267.9 L 324.6 277.6 L 298.7 286.1 L 270.9 293.3 L 241.6 299.0 L 211.0 303.2 L 179.8 305.7 L 146.7 306.6 L 148.1 356.0 L 148.1 356.0 L 149.5 405.4 L 185.4 404.3 L 222.3 401.0 L 258.5 395.6 L 293.7 387.9 L 327.4 378.2 L 359.5 366.5 L 389.5 352.7 L 417.3 337.0 L 442.4 319.3 L 464.6 299.8 L 483.6 278.4 L 499.0 255.2 L 510.2 230.4 L 516.8 204.5 L 518.4 178.0 L 514.8 151.9 L 506.4 127.0 L 493.8 103.9 L 477.5 82.6 L 457.9 63.3 L 435.5 45.9 L 410.5 30.2 L 383.2 16.3 L 353.7 4.2 L 322.4 -6.1 L 289.5 -14.7 L 255.3 -21.4 L 220.1 -26.2 L 184.3 -29.0 L 148.9 -30.0 Z M 289.7 382.9 L 559.0 739.5 L 657.1 660.5 L 366.4 321.1 Z " fill="#241c0f"/><path transform="translate(393.5,530.0) scale(0.1)" d="M 449.4 103.5 L 358.6 7.1 L 237.4 -20.0 L 116.3 21.4 L 47.0 137.9 L 92.9 259.2 L 212.7 338.4 L 260.2 376.9 L 306.8 413.3 L 361.3 482.6 L 345.6 552.8 L 277.1 613.6 L 204.9 619.5 L 116.4 558.9 L 46.0 657.1 L 169.5 748.5 L 331.3 734.4 L 456.8 611.2 L 477.0 449.4 L 375.5 338.7 L 318.2 299.1 L 265.7 261.6 L 161.5 200.8 L 131.3 142.1 L 162.0 74.6 L 241.0 44.0 L 323.8 64.9 L 393.0 152.5 Z " fill="#241c0f"/><path transform="translate(445.8,530.0) scale(0.1)" d="M 46.0 48.0 L 546.0 48.0 L 546.0 -14.0 L 46.0 -14.0 Z M 359.0 700.0 L 326.0 0.0 L 266.0 0.0 L 233.0 700.0 Z M 193.9 700.0 L 398.1 700.0 L 398.1 670.0 L 193.9 670.0 Z " fill="#241c0f"/><path transform="translate(505.0,530.0) scale(0.1)" d="M 70.3 0.0 L 100.3 470.0 L 101.8 524.8 L 46.0 498.1 L 49.7 526.0 L 56.5 553.5 L 66.3 580.1 L 79.1 605.7 L 94.6 629.7 L 112.7 652.1 L 133.3 672.4 L 155.9 690.5 L 180.4 706.1 L 206.5 719.1 L 233.8 729.3 L 262.1 736.7 L 291.0 741.2 L 320.3 742.7 L 349.6 741.2 L 378.5 736.7 L 406.8 729.3 L 434.1 719.1 L 460.2 706.1 L 484.7 690.5 L 507.3 672.4 L 527.9 652.1 L 546.0 629.7 L 561.5 605.7 L 574.3 580.1 L 584.1 553.5 L 590.9 526.0 L 594.6 498.1 L 595.0 473.0 L 595.1 470.0 L 570.3 0.0 L 510.3 0.0 L 485.5 470.0 L 485.6 467.0 L 483.6 485.8 L 480.1 501.3 L 474.9 516.3 L 468.3 530.7 L 460.1 544.3 L 450.6 557.1 L 439.7 569.0 L 427.7 579.7 L 414.5 589.3 L 400.4 597.6 L 385.4 604.6 L 369.8 610.1 L 353.6 614.1 L 337.0 616.5 L 320.3 617.3 L 303.6 616.5 L 287.0 614.1 L 270.8 610.1 L 255.2 604.6 L 240.2 597.6 L 226.1 589.3 L 212.9 579.7 L 200.9 569.0 L 190.0 557.1 L 180.5 544.3 L 172.3 530.7 L 165.7 516.3 L 160.5 501.3 L 157.0 485.8 L 98.8 415.2 L 100.3 470.0 L 130.3 0.0 Z " fill="#241c0f"/><path transform="translate(569.1,530.0) scale(0.1)" d="M 46.0 10.9 L 275.8 692.6 L 392.1 647.4 L 101.9 -10.9 Z M 566.0 -10.9 L 275.8 647.4 L 392.1 692.6 L 621.9 10.9 Z " fill="#241c0f"/><path transform="translate(635.9,530.0) scale(0.1)" d="M 46.0 7.4 L 184.6 685.3 L 305.5 654.7 L 104.2 -7.4 Z M 303.1 692.8 L 481.5 174.3 L 408.6 145.7 L 187.0 647.2 Z M 408.6 174.3 L 587.0 692.8 L 703.1 647.2 L 481.5 145.7 Z M 705.5 685.3 L 844.2 7.4 L 786.0 -7.4 L 584.6 654.7 Z " fill="#241c0f"/><path transform="translate(724.9,530.0) scale(0.1)" d="M 73.4 16.7 L 516.0 735.1 L 620.6 664.9 L 123.2 -16.7 Z M 543.4 -16.7 L 46.0 664.9 L 150.6 735.1 L 593.2 16.7 Z " fill="#241c0f"/><path transform="translate(791.6,530.0) scale(0.1)" d="M 46.0 17.3 L 270.8 368.0 L 350.2 312.0 L 95.0 -17.3 Z M 526.0 -17.3 L 270.8 312.0 L 350.2 368.0 L 575.0 17.3 Z M 373.5 700.0 L 359.1 340.0 L 261.9 340.0 L 247.5 700.0 Z M 208.4 700.0 L 412.6 700.0 L 412.6 670.0 L 208.4 670.0 Z " fill="#241c0f"/><path transform="translate(853.7,530.0) scale(0.1)" d="M 92.9 48.0 L 537.9 48.0 L 537.9 -14.0 L 92.9 -14.0 Z M 506.8 7.5 L 46.0 640.2 L 149.9 709.8 L 559.1 42.5 Z M 87.9 744.7 L 542.9 744.7 L 542.9 619.3 L 87.9 619.3 Z " fill="#241c0f"/><line x1="38" y1="624" x2="413" y2="624" stroke="#b89b6a" stroke-width="0.8"/><path transform="translate(40.0,622.0) scale(0.1)" d="M 594.3 350.0 L 591.6 321.5 L 586.0 293.5 L 577.5 266.4 L 566.3 240.4 L 552.5 215.8 L 536.4 192.9 L 518.0 171.8 L 497.7 152.8 L 475.6 135.9 L 452.1 121.5 L 427.2 109.5 L 401.3 100.1 L 374.7 93.3 L 347.5 89.2 L 320.1 87.8 L 292.7 89.2 L 265.6 93.3 L 238.9 100.1 L 213.0 109.5 L 188.2 121.5 L 164.6 135.9 L 142.5 152.8 L 122.2 171.8 L 103.9 192.9 L 87.7 215.8 L 74.0 240.4 L 62.8 266.4 L 54.3 293.5 L 48.7 321.5 L 46.0 350.0 L 46.4 378.8 L 49.8 407.5 L 56.2 435.7 L 65.7 463.3 L 78.1 489.7 L 93.3 514.8 L 111.2 538.1 L 131.5 559.4 L 154.1 578.5 L 178.6 595.1 L 204.9 608.9 L 232.4 619.9 L 261.1 627.8 L 290.4 632.6 L 320.1 634.2 L 349.8 632.6 L 379.2 627.8 L 407.8 619.9 L 435.4 608.9 L 461.6 595.1 L 486.1 578.5 L 508.7 559.4 L 529.0 538.1 L 546.9 514.8 L 562.1 489.7 L 574.5 463.3 L 584.0 435.7 L 590.5 407.5 L 593.9 378.8 Z M 493.9 368.3 L 489.9 386.1 L 484.2 403.3 L 476.8 419.8 L 467.8 435.3 L 457.4 449.7 L 445.6 463.0 L 432.6 475.0 L 418.6 485.5 L 403.6 494.6 L 387.9 502.2 L 371.5 508.1 L 354.6 512.4 L 337.5 515.0 L 320.1 515.8 L 302.8 515.0 L 285.6 512.4 L 268.7 508.1 L 252.4 502.2 L 236.6 494.6 L 221.6 485.5 L 207.6 475.0 L 194.6 463.0 L 182.9 449.7 L 172.4 435.3 L 163.5 419.8 L 156.0 403.3 L 150.3 386.1 L 146.4 368.3 L 144.3 350.0 L 144.0 331.5 L 145.8 312.9 L 149.5 294.6 L 155.2 276.6 L 162.8 259.2 L 172.3 242.6 L 183.6 227.1 L 196.6 212.8 L 211.1 200.0 L 227.1 188.8 L 244.2 179.4 L 262.3 172.0 L 281.1 166.6 L 300.5 163.3 L 320.1 162.2 L 339.7 163.3 L 359.1 166.6 L 378.0 172.0 L 396.1 179.4 L 413.2 188.8 L 429.1 200.0 L 443.7 212.8 L 456.6 227.1 L 467.9 242.6 L 477.4 259.2 L 485.1 276.6 L 490.7 294.6 L 494.5 312.9 L 496.2 331.5 L 496.0 350.0 Z " fill="#241c0f"/><path transform="translate(104.0,622.0) scale(0.1)" d="M 256.9 700.0 L 223.9 0.0 L 163.9 0.0 L 130.9 700.0 Z M 91.9 700.0 L 296.0 700.0 L 296.0 670.0 L 91.9 670.0 Z M 101.9 165.8 L 216.4 30.7 L 171.5 -10.7 L 46.0 114.2 Z " fill="#241c0f"/><path transform="translate(138.2,622.0) scale(0.1)" d="M 123.9 184.3 L 127.1 165.6 L 131.5 149.2 L 137.8 133.4 L 145.7 118.1 L 155.3 103.8 L 166.5 90.5 L 179.2 78.5 L 193.1 67.9 L 208.2 58.8 L 224.2 51.5 L 241.0 46.0 L 258.4 42.4 L 276.0 40.7 L 293.7 41.1 L 311.3 43.4 L 328.5 47.6 L 345.0 53.8 L 360.8 61.7 L 375.5 71.2 L 389.0 82.3 L 401.2 94.8 L 411.9 108.5 L 420.9 123.1 L 428.3 138.6 L 434.0 154.7 L 437.9 171.1 L 440.0 187.8 L 440.3 204.5 L 438.9 221.0 L 435.8 237.1 L 431.0 252.8 L 424.8 267.7 L 416.8 282.6 L 413.9 287.2 L 496.3 332.8 L 500.2 325.2 L 509.9 302.1 L 517.3 277.5 L 522.0 252.3 L 524.0 226.9 L 523.3 201.6 L 520.0 176.5 L 514.1 152.1 L 505.7 128.5 L 495.0 106.1 L 482.1 84.9 L 467.2 65.3 L 450.4 47.3 L 431.9 31.2 L 412.0 17.1 L 390.8 5.2 L 368.6 -4.6 L 345.6 -12.1 L 322.0 -17.3 L 298.0 -20.1 L 273.9 -20.5 L 249.8 -18.5 L 226.0 -14.1 L 202.8 -7.4 L 180.3 1.6 L 158.8 12.9 L 138.4 26.3 L 119.4 41.7 L 102.1 59.1 L 86.5 78.2 L 72.9 98.9 L 61.4 120.9 L 52.3 144.1 L 46.0 166.3 Z M 397.0 306.1 L 57.0 636.4 L 146.8 723.6 L 466.8 373.9 Z M 101.9 744.7 L 501.9 744.7 L 501.9 619.3 L 101.9 619.3 Z " fill="#241c0f"/><path transform="translate(195.2,622.0) scale(0.1)" d="M 135.1 106.6 L 143.9 91.4 L 153.2 78.5 L 163.9 66.7 L 175.9 56.1 L 189.0 46.8 L 203.2 39.0 L 218.1 32.9 L 233.7 28.4 L 249.7 25.9 L 265.9 25.0 L 282.1 25.9 L 298.2 28.4 L 313.8 32.9 L 328.7 39.0 L 342.8 46.8 L 356.0 56.1 L 368.0 66.7 L 378.7 78.5 L 387.9 91.4 L 395.7 105.1 L 402.0 119.4 L 406.6 134.3 L 409.6 149.5 L 410.9 164.8 L 410.6 180.0 L 408.8 195.0 L 405.4 209.7 L 400.6 223.8 L 394.4 237.2 L 387.0 249.9 L 378.3 261.6 L 368.6 272.4 L 357.9 282.1 L 346.4 290.7 L 334.1 298.0 L 321.2 304.1 L 307.8 308.9 L 294.1 312.3 L 280.1 314.4 L 265.7 315.1 L 252.0 314.5 L 247.6 414.1 L 266.2 414.9 L 290.5 413.6 L 314.7 409.6 L 338.4 403.0 L 361.2 393.9 L 382.8 382.4 L 403.0 368.6 L 421.6 352.8 L 438.2 335.1 L 452.9 315.8 L 465.3 295.1 L 475.5 273.3 L 483.1 250.6 L 488.4 227.3 L 491.1 203.7 L 491.2 180.0 L 488.9 156.6 L 484.2 133.6 L 477.2 111.4 L 467.9 90.1 L 456.6 69.9 L 443.3 51.2 L 428.2 33.9 L 411.5 18.3 L 393.4 4.6 L 374.0 -7.2 L 353.7 -17.0 L 332.5 -24.7 L 310.6 -30.3 L 288.4 -33.9 L 265.9 -35.0 L 243.5 -33.9 L 221.2 -30.3 L 199.4 -24.7 L 178.2 -17.0 L 157.8 -7.2 L 138.5 4.6 L 120.4 18.3 L 103.7 33.9 L 88.6 51.2 L 76.3 68.4 Z M 250.6 368.4 L 268.5 367.7 L 283.9 368.9 L 299.0 371.7 L 313.7 376.2 L 327.8 382.3 L 341.1 389.9 L 353.4 398.9 L 364.6 409.2 L 374.6 420.5 L 383.3 432.9 L 390.5 446.0 L 396.2 459.7 L 400.5 473.9 L 403.2 488.3 L 404.3 502.9 L 404.0 517.4 L 402.1 531.7 L 398.8 545.7 L 394.2 559.2 L 388.2 572.0 L 381.0 584.2 L 372.7 595.5 L 363.4 605.8 L 353.0 615.2 L 341.9 623.5 L 330.0 630.6 L 317.5 636.5 L 304.5 641.1 L 291.1 644.5 L 277.4 646.4 L 263.6 646.9 L 249.9 645.9 L 236.3 643.5 L 223.0 639.7 L 210.1 634.7 L 197.8 628.4 L 186.2 620.8 L 175.3 612.2 L 165.3 602.5 L 156.1 591.6 L 148.1 580.0 L 46.0 645.0 L 56.3 662.1 L 72.2 683.4 L 90.6 703.0 L 111.0 720.6 L 133.2 735.9 L 156.9 748.8 L 181.9 759.0 L 207.9 766.5 L 234.5 771.2 L 261.4 773.0 L 288.4 772.1 L 315.2 768.3 L 341.4 761.8 L 366.8 752.5 L 390.9 740.5 L 413.7 726.0 L 434.7 709.1 L 453.8 690.1 L 470.6 669.2 L 485.1 646.7 L 497.1 622.8 L 506.5 597.8 L 513.1 572.1 L 516.9 545.8 L 517.9 519.4 L 516.1 493.1 L 511.6 467.3 L 504.4 442.1 L 494.6 417.9 L 482.5 395.0 L 468.1 373.5 L 451.6 353.6 L 433.2 335.6 L 413.2 319.6 L 391.7 305.8 L 368.9 294.2 L 345.1 285.0 L 320.6 278.3 L 295.5 274.0 L 270.2 272.3 L 247.3 273.1 Z " fill="#241c0f"/><path transform="translate(281.6,622.0) scale(0.1)" d="M 170.0 645.0 L 169.7 638.5 L 168.6 632.1 L 167.0 625.8 L 164.6 619.8 L 161.7 614.0 L 158.2 608.6 L 154.1 603.5 L 149.5 598.9 L 144.4 594.8 L 139.0 591.3 L 133.2 588.4 L 127.2 586.0 L 120.9 584.4 L 114.5 583.3 L 108.0 583.0 L 101.5 583.3 L 95.1 584.4 L 88.8 586.0 L 82.8 588.4 L 77.0 591.3 L 71.6 594.8 L 66.5 598.9 L 61.9 603.5 L 57.8 608.6 L 54.3 614.0 L 51.4 619.8 L 49.0 625.8 L 47.4 632.1 L 46.3 638.5 L 46.0 645.0 L 46.3 651.5 L 47.4 657.9 L 49.0 664.2 L 51.4 670.2 L 54.3 676.0 L 57.8 681.4 L 61.9 686.5 L 66.5 691.1 L 71.6 695.2 L 77.0 698.7 L 82.8 701.6 L 88.8 704.0 L 95.1 705.6 L 101.5 706.7 L 108.0 707.0 L 114.5 706.7 L 120.9 705.6 L 127.2 704.0 L 133.2 701.6 L 139.0 698.7 L 144.4 695.2 L 149.5 691.1 L 154.1 686.5 L 158.2 681.4 L 161.7 676.0 L 164.6 670.2 L 167.0 664.2 L 168.6 657.9 L 169.7 651.5 L 169.7 651.5 Z " fill="#241c0f"/><path transform="translate(303.2,622.0) scale(0.1)" d="M 209.1 630.0 L 208.8 623.5 L 207.8 617.1 L 206.1 610.8 L 203.8 604.8 L 200.8 599.0 L 197.3 593.6 L 193.2 588.5 L 188.6 583.9 L 183.6 579.8 L 178.1 576.3 L 172.3 573.4 L 166.3 571.0 L 160.0 569.4 L 153.6 568.3 L 147.1 568.0 L 140.6 568.3 L 134.2 569.4 L 128.0 571.0 L 121.9 573.4 L 116.1 576.3 L 110.7 579.8 L 105.6 583.9 L 101.0 588.5 L 97.0 593.6 L 93.4 599.0 L 90.5 604.8 L 88.2 610.8 L 86.5 617.1 L 85.5 623.5 L 85.1 630.0 L 85.5 636.5 L 86.5 642.9 L 88.2 649.2 L 90.5 655.2 L 93.4 661.0 L 97.0 666.4 L 101.0 671.5 L 105.6 676.1 L 110.7 680.2 L 116.1 683.7 L 121.9 686.6 L 128.0 689.0 L 134.2 690.6 L 140.6 691.7 L 147.1 692.0 L 153.6 691.7 L 160.0 690.6 L 166.3 689.0 L 172.3 686.6 L 178.1 683.7 L 183.6 680.2 L 188.6 676.1 L 193.2 671.5 L 197.3 666.4 L 200.8 661.0 L 203.8 655.2 L 206.1 649.2 L 207.8 642.9 L 208.8 636.5 L 208.8 636.5 Z M 86.9 644.9 L 46.0 804.7 L 168.2 835.3 L 207.3 675.1 Z " fill="#241c0f"/><path transform="translate(328.7,622.0) scale(0.1)" d="M 166.0 230.0 L 165.7 223.7 L 164.7 217.5 L 163.1 211.5 L 160.8 205.6 L 158.0 200.0 L 154.5 194.7 L 150.6 189.9 L 146.1 185.4 L 141.3 181.5 L 136.0 178.0 L 130.4 175.2 L 124.5 172.9 L 118.5 171.3 L 112.3 170.3 L 106.0 170.0 L 99.7 170.3 L 93.5 171.3 L 87.5 172.9 L 81.6 175.2 L 76.0 178.0 L 70.7 181.5 L 65.9 185.4 L 61.4 189.9 L 57.5 194.7 L 54.0 200.0 L 51.2 205.6 L 48.9 211.5 L 47.3 217.5 L 46.3 223.7 L 46.0 230.0 L 46.3 236.3 L 47.3 242.5 L 48.9 248.5 L 51.2 254.4 L 54.0 260.0 L 57.5 265.3 L 61.4 270.1 L 65.9 274.6 L 70.7 278.5 L 76.0 282.0 L 81.6 284.8 L 87.5 287.1 L 93.5 288.7 L 99.7 289.7 L 106.0 290.0 L 112.3 289.7 L 118.5 288.7 L 124.5 287.1 L 130.4 284.8 L 136.0 282.0 L 141.3 278.5 L 146.1 274.6 L 150.6 270.1 L 154.5 265.3 L 158.0 260.0 L 160.8 254.4 L 163.1 248.5 L 164.7 242.5 L 165.7 236.3 L 165.7 236.3 Z M 166.0 580.0 L 165.7 573.7 L 164.7 567.5 L 163.1 561.5 L 160.8 555.6 L 158.0 550.0 L 154.5 544.7 L 150.6 539.9 L 146.1 535.4 L 141.3 531.5 L 136.0 528.0 L 130.4 525.2 L 124.5 522.9 L 118.5 521.3 L 112.3 520.3 L 106.0 520.0 L 99.7 520.3 L 93.5 521.3 L 87.5 522.9 L 81.6 525.2 L 76.0 528.0 L 70.7 531.5 L 65.9 535.4 L 61.4 539.9 L 57.5 544.7 L 54.0 550.0 L 51.2 555.6 L 48.9 561.5 L 47.3 567.5 L 46.3 573.7 L 46.0 580.0 L 46.3 586.3 L 47.3 592.5 L 48.9 598.5 L 51.2 604.4 L 54.0 610.0 L 57.5 615.3 L 61.4 620.1 L 65.9 624.6 L 70.7 628.5 L 76.0 632.0 L 81.6 634.8 L 87.5 637.1 L 93.5 638.7 L 99.7 639.7 L 106.0 640.0 L 112.3 639.7 L 118.5 638.7 L 124.5 637.1 L 130.4 634.8 L 136.0 632.0 L 141.3 628.5 L 146.1 624.6 L 150.6 620.1 L 154.5 615.3 L 158.0 610.0 L 160.8 604.4 L 163.1 598.5 L 164.7 592.5 L 165.7 586.3 L 165.7 586.3 Z " fill="#241c0f"/><path transform="translate(349.9,622.0) scale(0.1)" d="M 46.0 420.1 L 306.0 420.1 L 306.0 319.9 L 46.0 319.9 Z " fill="#241c0f"/><path transform="translate(385.1,622.0) scale(0.1)" d="M 78.0 0.0 L 52.3 490.0 L 163.7 490.0 L 138.0 0.0 Z M 170.0 640.0 L 169.7 633.5 L 168.6 627.1 L 167.0 620.8 L 164.6 614.8 L 161.7 609.0 L 158.2 603.6 L 154.1 598.5 L 149.5 593.9 L 144.4 589.8 L 139.0 586.3 L 133.2 583.4 L 127.2 581.0 L 120.9 579.4 L 114.5 578.3 L 108.0 578.0 L 101.5 578.3 L 95.1 579.4 L 88.8 581.0 L 82.8 583.4 L 77.0 586.3 L 71.6 589.8 L 66.5 593.9 L 61.9 598.5 L 57.8 603.6 L 54.3 609.0 L 51.4 614.8 L 49.0 620.8 L 47.4 627.1 L 46.3 633.5 L 46.0 640.0 L 46.3 646.5 L 47.4 652.9 L 49.0 659.2 L 51.4 665.2 L 54.3 671.0 L 57.8 676.4 L 61.9 681.5 L 66.5 686.1 L 71.6 690.2 L 77.0 693.7 L 82.8 696.6 L 88.8 699.0 L 95.1 700.6 L 101.5 701.7 L 108.0 702.0 L 114.5 701.7 L 120.9 700.6 L 127.2 699.0 L 133.2 696.6 L 139.0 693.7 L 144.4 690.2 L 149.5 686.1 L 154.1 681.5 L 158.2 676.4 L 161.7 671.0 L 164.6 665.2 L 167.0 659.2 L 168.6 652.9 L 169.7 646.5 L 169.7 646.5 Z " fill="#241c0f"/></svg>